# xmcd
#
# Track frame offsets:
#	150
#	12733
#	22060
#	32564
#	42651
#	54162
#	65030
#	76944
#	86493
#	97643
#
# Disc length: 1415 seconds
#
# Revision: 1
# Processed by: cddbd v1.5.2PL0 Copyright (c) Steve Scherf et al.
# Submitted via: audiograbber 1.83.01
#
DISCID=7605850a
DTITLE=Del Reeves - All Time Greatest Hits
DYEAR=2002
DGENRE=Country
TTITLE0=Girl On The Billboard (1965)
TTITLE1=Good Time Charlies (1968)
TTITLE2=Belles Of Southern Bell (1965)
TTITLE3=Looking At The World Through A Windshield (1968)
TTITLE4=Be Glad (1969)
TTITLE5=Women Do Funny Things To Me (1965)
TTITLE6=Philadelphia Fillies (1971)
TTITLE7=A Dime At A Time (1967)
TTITLE8=A Lovers Question (1970)
TTITLE9=This Must Be The Bottom (1966)
EXTD=King Records KSCD-0313
EXTT0=
EXTT1=
EXTT2=
EXTT3=
EXTT4=
EXTT5=
EXTT6=
EXTT7=
EXTT8=
EXTT9=
PLAYORDER=
